<svg xmlns="http://www.w3.org/2000/svg" xmlns:xlink="http://www.w3.org/1999/xlink" width="131" zoomAndPan="magnify" viewBox="0 0 98.25 30.000001" height="40" preserveAspectRatio="xMidYMid meet" version="1.0"><defs><g/><clipPath id="f3bbc6da70"><path d="M 3.320312 3 L 26 3 L 26 25.488281 L 3.320312 25.488281 Z M 3.320312 3 " clip-rule="nonzero"/></clipPath><clipPath id="77f4c65fd2"><path d="M 24 11 L 29.449219 11 L 29.449219 20 L 24 20 Z M 24 11 " clip-rule="nonzero"/></clipPath></defs><g clip-path="url(#f3bbc6da70)"><path fill="#6c22a6" d="M 19.703125 3.003906 C 17.050781 3.003906 14.847656 4.933594 14.425781 7.464844 L 13.769531 7.589844 C 13 6.285156 11.582031 5.414062 9.957031 5.414062 C 7.507812 5.414062 5.527344 7.394531 5.527344 9.84375 C 5.527344 11.921875 6.960938 13.667969 8.894531 14.144531 L 8.894531 14.636719 L 7.996094 14.636719 L 7.992188 14.597656 L 6.929688 14.203125 L 6.1875 14.203125 L 7.359375 16.652344 L 7.796875 16.535156 L 8.039062 16.140625 L 8.894531 16.140625 L 8.894531 21.671875 L 10.316406 21.671875 L 10.148438 22.902344 L 6.769531 23.546875 L 6.042969 23.167969 L 3.320312 23.6875 L 3.511719 25.210938 L 6.242188 24.695312 L 6.875 24.058594 L 10.546875 23.265625 L 10.808594 21.671875 L 24.292969 21.671875 L 24.292969 12.472656 L 23.109375 12.472656 C 24.296875 11.492188 25.054688 10.007812 25.054688 8.351562 C 25.054688 5.394531 22.65625 3.003906 19.703125 3.003906 Z M 15.054688 10.996094 C 15.375 11.5625 15.796875 12.0625 16.292969 12.472656 L 13.523438 12.472656 C 13.8125 12.082031 14.035156 11.640625 14.183594 11.164062 Z M 22.746094 19.8125 C 23.015625 19.8125 23.230469 20.03125 23.230469 20.296875 C 23.230469 20.5625 23.015625 20.777344 22.746094 20.777344 C 22.480469 20.777344 22.265625 20.5625 22.265625 20.296875 C 22.265625 20.03125 22.480469 19.8125 22.746094 19.8125 Z M 22.746094 19.8125 " fill-opacity="1" fill-rule="nonzero"/></g><path fill="#83c0c1" d="M 19.625 5.523438 C 18.132812 5.523438 16.921875 6.734375 16.921875 8.226562 C 16.921875 9.71875 18.132812 10.929688 19.625 10.929688 C 21.117188 10.929688 22.328125 9.71875 22.328125 8.226562 C 22.328125 6.734375 21.117188 5.523438 19.625 5.523438 Z M 19.367188 6.320312 C 19.609375 6.320312 19.804688 6.515625 19.804688 6.757812 C 19.804688 7 19.609375 7.195312 19.367188 7.195312 C 19.125 7.195312 18.925781 7 18.925781 6.757812 C 18.925781 6.515625 19.125 6.320312 19.367188 6.320312 Z M 20.722656 7.140625 C 20.960938 7.140625 21.160156 7.339844 21.160156 7.582031 C 21.160156 7.824219 20.960938 8.019531 20.722656 8.019531 C 20.480469 8.019531 20.28125 7.824219 20.28125 7.582031 C 20.28125 7.339844 20.480469 7.140625 20.722656 7.140625 Z M 18.332031 7.488281 C 18.574219 7.488281 18.769531 7.683594 18.769531 7.925781 C 18.769531 8.167969 18.574219 8.363281 18.332031 8.363281 C 18.089844 8.363281 17.890625 8.167969 17.890625 7.925781 C 17.890625 7.683594 18.089844 7.488281 18.332031 7.488281 Z M 20.5625 8.683594 C 20.804688 8.683594 21 8.878906 21 9.121094 C 21 9.363281 20.804688 9.558594 20.5625 9.558594 C 20.320312 9.558594 20.121094 9.363281 20.121094 9.121094 C 20.121094 8.878906 20.320312 8.683594 20.5625 8.683594 Z M 18.941406 8.949219 C 19.183594 8.949219 19.378906 9.144531 19.378906 9.386719 C 19.378906 9.628906 19.183594 9.824219 18.941406 9.824219 C 18.699219 9.824219 18.503906 9.628906 18.503906 9.386719 C 18.503906 9.144531 18.699219 8.949219 18.941406 8.949219 Z M 18.941406 8.949219 " fill-opacity="1" fill-rule="nonzero"/><path fill="#83c0c1" d="M 9.96875 7.453125 C 8.757812 7.453125 7.777344 8.433594 7.777344 9.640625 C 7.777344 10.851562 8.757812 11.832031 9.96875 11.832031 C 11.175781 11.832031 12.15625 10.851562 12.15625 9.640625 C 12.15625 8.433594 11.175781 7.453125 9.96875 7.453125 Z M 9.757812 8.097656 C 9.953125 8.097656 10.113281 8.257812 10.113281 8.453125 C 10.113281 8.648438 9.953125 8.808594 9.757812 8.808594 C 9.5625 8.808594 9.402344 8.648438 9.402344 8.453125 C 9.402344 8.257812 9.5625 8.097656 9.757812 8.097656 Z M 10.855469 8.765625 C 11.050781 8.765625 11.210938 8.925781 11.210938 9.121094 C 11.210938 9.316406 11.050781 9.476562 10.855469 9.476562 C 10.660156 9.476562 10.5 9.316406 10.5 9.121094 C 10.5 8.925781 10.660156 8.765625 10.855469 8.765625 Z M 8.921875 9.042969 C 9.117188 9.042969 9.273438 9.203125 9.273438 9.398438 C 9.273438 9.59375 9.117188 9.753906 8.921875 9.753906 C 8.726562 9.753906 8.566406 9.59375 8.566406 9.398438 C 8.566406 9.203125 8.726562 9.042969 8.921875 9.042969 Z M 10.726562 10.011719 C 10.921875 10.011719 11.082031 10.171875 11.082031 10.367188 C 11.082031 10.5625 10.921875 10.722656 10.726562 10.722656 C 10.53125 10.722656 10.371094 10.5625 10.371094 10.367188 C 10.371094 10.171875 10.53125 10.011719 10.726562 10.011719 Z M 9.414062 10.226562 C 9.609375 10.226562 9.769531 10.386719 9.769531 10.582031 C 9.769531 10.777344 9.609375 10.9375 9.414062 10.9375 C 9.21875 10.9375 9.058594 10.777344 9.058594 10.582031 C 9.058594 10.386719 9.21875 10.226562 9.414062 10.226562 Z M 9.414062 10.226562 " fill-opacity="1" fill-rule="nonzero"/><g clip-path="url(#77f4c65fd2)"><path fill="#6c22a6" d="M 29.292969 11.90625 L 26.578125 13.550781 L 24.453125 13.550781 L 24.453125 17.652344 L 26.578125 17.652344 L 29.292969 19.296875 Z M 29.292969 11.90625 " fill-opacity="1" fill-rule="nonzero"/></g><g fill="#ffffff" fill-opacity="1"><g transform="translate(12.637179, 21.609857)"><g><path d="M 0.257812 -2.496094 C 0.378906 -0.90625 1.371094 0.128906 3.789062 0.128906 C 6.078125 0.128906 7.035156 -0.824219 7.035156 -2.019531 C 7.035156 -3.183594 6.355469 -3.910156 4.019531 -4.238281 C 2.296875 -4.496094 2.03125 -4.796875 2.03125 -5.234375 C 2.03125 -5.632812 2.40625 -6 3.570312 -6 C 4.726562 -6 5.132812 -5.570312 5.214844 -4.796875 L 6.875 -4.796875 C 6.753906 -6.335938 5.769531 -7.390625 3.53125 -7.390625 C 1.351562 -7.390625 0.386719 -6.425781 0.386719 -5.234375 C 0.386719 -4.089844 1.066406 -3.371094 3.511719 -2.996094 C 5.152344 -2.753906 5.390625 -2.46875 5.390625 -2.039062 C 5.390625 -1.660156 5.003906 -1.261719 3.75 -1.261719 C 2.46875 -1.261719 2.050781 -1.703125 1.929688 -2.496094 Z M 0.257812 -2.496094 "/></g></g></g><g fill="#f9943b" fill-opacity="1"><g transform="translate(29.543054, 18.986292)"><g><path d="M 0.320312 -3.097656 C 0.46875 -1.125 1.703125 0.160156 4.703125 0.160156 C 7.546875 0.160156 8.730469 -1.023438 8.730469 -2.507812 C 8.730469 -3.953125 7.890625 -4.851562 4.988281 -5.261719 C 2.851562 -5.582031 2.519531 -5.953125 2.519531 -6.496094 C 2.519531 -6.988281 2.988281 -7.445312 4.433594 -7.445312 C 5.867188 -7.445312 6.371094 -6.914062 6.46875 -5.953125 L 8.53125 -5.953125 C 8.382812 -7.867188 7.164062 -9.175781 4.382812 -9.175781 C 1.679688 -9.175781 0.480469 -7.976562 0.480469 -6.496094 C 0.480469 -5.074219 1.320312 -4.1875 4.359375 -3.71875 C 6.398438 -3.421875 6.691406 -3.0625 6.691406 -2.53125 C 6.691406 -2.0625 6.210938 -1.566406 4.65625 -1.566406 C 3.0625 -1.566406 2.542969 -2.113281 2.394531 -3.097656 Z M 0.320312 -3.097656 "/></g></g></g><g fill="#f9943b" fill-opacity="1"><g transform="translate(38.655663, 18.986292)"><g><path d="M 6.890625 -5.394531 L 2.890625 -5.394531 L 2.890625 -9.015625 L 0.828125 -9.015625 L 0.828125 0 L 2.890625 0 L 2.890625 -3.605469 L 6.890625 -3.605469 L 6.890625 0 L 8.941406 0 L 8.941406 -9.015625 L 6.890625 -9.015625 Z M 6.890625 -5.394531 "/></g></g></g><g fill="#f9943b" fill-opacity="1"><g transform="translate(48.422701, 18.986292)"><g><path d="M 7.839844 0 L 7.839844 -1.765625 L 2.863281 -1.765625 L 2.863281 -3.691406 L 7.1875 -3.691406 L 7.1875 -5.433594 L 2.863281 -5.433594 L 2.863281 -7.261719 L 7.632812 -7.261719 L 7.632812 -9.015625 L 0.828125 -9.015625 L 0.828125 0 Z M 7.839844 0 "/></g></g></g><g fill="#f9943b" fill-opacity="1"><g transform="translate(56.596883, 18.986292)"><g><path d="M 7.0625 -3.359375 L 3.011719 -9.015625 L 0.828125 -9.015625 L 0.828125 0 L 2.753906 0 L 2.753906 -6.085938 L 7.222656 0 L 8.988281 0 L 8.988281 -9.015625 L 7.0625 -9.015625 Z M 7.0625 -3.359375 "/></g></g></g><g fill="#f9943b" fill-opacity="1"><g transform="translate(66.41331, 18.986292)"><g><path d="M 0.320312 -3.097656 C 0.46875 -1.125 1.703125 0.160156 4.703125 0.160156 C 7.546875 0.160156 8.730469 -1.023438 8.730469 -2.507812 C 8.730469 -3.953125 7.890625 -4.851562 4.988281 -5.261719 C 2.851562 -5.582031 2.519531 -5.953125 2.519531 -6.496094 C 2.519531 -6.988281 2.988281 -7.445312 4.433594 -7.445312 C 5.867188 -7.445312 6.371094 -6.914062 6.46875 -5.953125 L 8.53125 -5.953125 C 8.382812 -7.867188 7.164062 -9.175781 4.382812 -9.175781 C 1.679688 -9.175781 0.480469 -7.976562 0.480469 -6.496094 C 0.480469 -5.074219 1.320312 -4.1875 4.359375 -3.71875 C 6.398438 -3.421875 6.691406 -3.0625 6.691406 -2.53125 C 6.691406 -2.0625 6.210938 -1.566406 4.65625 -1.566406 C 3.0625 -1.566406 2.542969 -2.113281 2.394531 -3.097656 Z M 0.320312 -3.097656 "/></g></g></g><g fill="#f9943b" fill-opacity="1"><g transform="translate(75.52592, 18.986292)"><g><path d="M 0.703125 -3.53125 C 0.703125 -1.257812 2.125 0.160156 4.667969 0.160156 C 7.210938 0.160156 8.632812 -1.257812 8.632812 -3.53125 L 8.632812 -9.015625 L 6.582031 -9.015625 L 6.582031 -3.792969 C 6.582031 -2.332031 5.867188 -1.667969 4.667969 -1.667969 C 3.445312 -1.667969 2.753906 -2.359375 2.753906 -3.792969 L 2.753906 -9.015625 L 0.703125 -9.015625 Z M 0.703125 -3.53125 "/></g></g></g><g fill="#f9943b" fill-opacity="1"><g transform="translate(84.860785, 18.986292)"><g><path d="M 0.703125 -3.53125 C 0.703125 -1.257812 2.125 0.160156 4.667969 0.160156 C 7.210938 0.160156 8.632812 -1.257812 8.632812 -3.53125 L 8.632812 -9.015625 L 6.582031 -9.015625 L 6.582031 -3.792969 C 6.582031 -2.332031 5.867188 -1.667969 4.667969 -1.667969 C 3.445312 -1.667969 2.753906 -2.359375 2.753906 -3.792969 L 2.753906 -9.015625 L 0.703125 -9.015625 Z M 0.703125 -3.53125 "/></g></g></g><g fill="#4fc8dc" fill-opacity="1"><g transform="translate(51.399771, 24.731974)"><g><path d="M 2.390625 -2.890625 L 2.796875 -2.890625 L 2.796875 0 L 2.515625 0 L 2.515625 -2.34375 L 1.703125 0 L 1.390625 0 L 0.59375 -2.34375 L 0.59375 0 L 0.3125 0 L 0.3125 -2.890625 L 0.71875 -2.890625 L 1.546875 -0.4375 Z M 2.390625 -2.890625 "/></g></g></g><g fill="#4fc8dc" fill-opacity="1"><g transform="translate(56.811825, 24.731974)"><g><path d="M 0.421875 -2.53125 C 0.609375 -2.769531 0.890625 -2.890625 1.265625 -2.890625 C 1.640625 -2.890625 1.921875 -2.769531 2.109375 -2.53125 C 2.296875 -2.28125 2.390625 -1.914062 2.390625 -1.4375 C 2.390625 -0.957031 2.296875 -0.597656 2.109375 -0.359375 C 1.921875 -0.117188 1.640625 0 1.265625 0 C 0.890625 0 0.609375 -0.117188 0.421875 -0.359375 C 0.234375 -0.597656 0.140625 -0.957031 0.140625 -1.4375 C 0.140625 -1.914062 0.234375 -2.28125 0.421875 -2.53125 Z M 1.890625 -2.3125 C 1.753906 -2.5 1.546875 -2.59375 1.265625 -2.59375 C 0.992188 -2.59375 0.785156 -2.5 0.640625 -2.3125 C 0.503906 -2.113281 0.4375 -1.820312 0.4375 -1.4375 C 0.4375 -1.050781 0.503906 -0.765625 0.640625 -0.578125 C 0.785156 -0.378906 0.992188 -0.28125 1.265625 -0.28125 C 1.546875 -0.28125 1.753906 -0.378906 1.890625 -0.578125 C 2.035156 -0.765625 2.109375 -1.050781 2.109375 -1.4375 C 2.109375 -1.820312 2.035156 -2.113281 1.890625 -2.3125 Z M 1.890625 -2.3125 "/></g></g></g><g fill="#4fc8dc" fill-opacity="1"><g transform="translate(61.658538, 24.731974)"><g><path d="M 2.03125 -2.890625 L 2.328125 -2.890625 L 1.328125 0 L 1.015625 0 L 0.015625 -2.890625 L 0.328125 -2.890625 L 1.171875 -0.421875 Z M 2.03125 -2.890625 "/></g></g></g><g fill="#4fc8dc" fill-opacity="1"><g transform="translate(66.312957, 24.731974)"><g><path d="M 0.484375 -2.59375 L 0.203125 -2.59375 L 0.203125 -2.890625 L 1.0625 -2.890625 L 1.0625 -2.59375 L 0.78125 -2.59375 L 0.78125 -0.28125 L 1.0625 -0.28125 L 1.0625 0 L 0.203125 0 L 0.203125 -0.28125 L 0.484375 -0.28125 Z M 0.484375 -2.59375 "/></g></g></g><g fill="#4fc8dc" fill-opacity="1"><g transform="translate(69.878999, 24.731974)"><g><path d="M 0.59375 -1.390625 L 0.59375 -0.28125 L 2.3125 -0.28125 L 2.3125 0 L 0.3125 0 L 0.3125 -2.890625 L 2.265625 -2.890625 L 2.265625 -2.59375 L 0.59375 -2.59375 L 0.59375 -1.671875 L 2.21875 -1.671875 L 2.21875 -1.390625 Z M 0.59375 -1.390625 "/></g></g></g></svg>